<svg width="173" height="44" viewBox="0 0 173 44" fill="none" xmlns="http://www.w3.org/2000/svg">
<path d="M105.457 18.512C107.089 18.512 108.401 19.016 109.393 20.024C110.401 21.016 110.905 22.408 110.905 24.2V32H107.545V24.656C107.545 23.616 107.281 22.824 106.753 22.28C106.225 21.72 105.505 21.44 104.593 21.44C103.681 21.44 102.953 21.72 102.409 22.28C101.881 22.824 101.617 23.616 101.617 24.656V32H98.2571V24.656C98.2571 23.616 97.9931 22.824 97.4651 22.28C96.9371 21.72 96.2171 21.44 95.3051 21.44C94.3771 21.44 93.6411 21.72 93.0971 22.28C92.5691 22.824 92.3051 23.616 92.3051 24.656V32H88.9451V18.704H92.3051V20.312C92.7371 19.752 93.2891 19.312 93.9611 18.992C94.6491 18.672 95.4011 18.512 96.2171 18.512C97.2571 18.512 98.1851 18.736 99.0011 19.184C99.8171 19.616 100.449 20.24 100.897 21.056C101.329 20.288 101.953 19.672 102.769 19.208C103.601 18.744 104.497 18.512 105.457 18.512Z" fill="white"/>
<path d="M119.998 32.216C118.718 32.216 117.566 31.936 116.542 31.376C115.518 30.8 114.71 29.992 114.118 28.952C113.542 27.912 113.254 26.712 113.254 25.352C113.254 23.992 113.55 22.792 114.142 21.752C114.75 20.712 115.574 19.912 116.614 19.352C117.654 18.776 118.814 18.488 120.094 18.488C121.374 18.488 122.534 18.776 123.574 19.352C124.614 19.912 125.43 20.712 126.022 21.752C126.63 22.792 126.934 23.992 126.934 25.352C126.934 26.712 126.622 27.912 125.998 28.952C125.39 29.992 124.558 30.8 123.502 31.376C122.462 31.936 121.294 32.216 119.998 32.216ZM119.998 29.288C120.606 29.288 121.174 29.144 121.701 28.856C122.246 28.552 122.678 28.104 122.998 27.512C123.318 26.92 123.478 26.2 123.478 25.352C123.478 24.088 123.142 23.12 122.47 22.448C121.814 21.76 121.006 21.416 120.046 21.416C119.086 21.416 118.277 21.76 117.621 22.448C116.981 23.12 116.662 24.088 116.662 25.352C116.662 26.616 116.974 27.592 117.598 28.28C118.238 28.952 119.038 29.288 119.998 29.288Z" fill="white"/>
<path d="M136.766 18.512C138.35 18.512 139.63 19.016 140.606 20.024C141.582 21.016 142.07 22.408 142.07 24.2V32H138.71V24.656C138.71 23.6 138.446 22.792 137.918 22.232C137.39 21.656 136.67 21.368 135.758 21.368C134.83 21.368 134.094 21.656 133.55 22.232C133.022 22.792 132.758 23.6 132.758 24.656V32H129.398V18.704H132.758V20.36C133.206 19.784 133.774 19.336 134.462 19.016C135.166 18.68 135.934 18.512 136.766 18.512Z" fill="white"/>
<path d="M157.625 25.064C157.625 25.544 157.593 25.976 157.529 26.36H147.809C147.889 27.32 148.225 28.072 148.817 28.616C149.409 29.16 150.137 29.432 151.001 29.432C152.249 29.432 153.137 28.896 153.665 27.824H157.289C156.905 29.104 156.169 30.16 155.081 30.992C153.993 31.808 152.657 32.216 151.073 32.216C149.793 32.216 148.641 31.936 147.617 31.376C146.609 30.8 145.817 29.992 145.241 28.952C144.681 27.912 144.401 26.712 144.401 25.352C144.401 23.976 144.681 22.768 145.241 21.728C145.801 20.688 146.585 19.888 147.593 19.328C148.601 18.768 149.761 18.488 151.073 18.488C152.337 18.488 153.465 18.76 154.457 19.304C155.465 19.848 156.241 20.624 156.785 21.632C157.345 22.624 157.625 23.768 157.625 25.064ZM154.145 24.104C154.129 23.24 153.817 22.552 153.209 22.04C152.601 21.512 151.857 21.248 150.977 21.248C150.145 21.248 149.441 21.504 148.865 22.016C148.305 22.512 147.961 23.208 147.833 24.104H154.145Z" fill="white"/>
<path d="M172.798 18.704L164.566 38.288H160.99L163.87 31.664L158.542 18.704H162.31L165.742 27.992L169.222 18.704H172.798Z" fill="white"/>
<path d="M52.9863 16.6069C52.9863 16.1756 53.0474 15.7728 53.1694 15.3984C53.2915 15.016 53.4543 14.6864 53.6577 14.4097C53.8693 14.1248 54.1134 13.9051 54.3901 13.7505C54.6668 13.5877 54.9639 13.5063 55.2812 13.5063H65.0469V15.5693H55.9038V29.9004H62.1782V21.2212H65.0713L65.0469 33.4282C65.0469 33.8433 64.9858 34.2339 64.8638 34.6001C64.7498 34.9744 64.5911 35.3 64.3877 35.5767C64.1842 35.8615 63.9442 36.0853 63.6675 36.248C63.3908 36.4108 63.0978 36.4922 62.7886 36.4922H62.1782V32H55.2812C54.9639 32 54.6668 31.9186 54.3901 31.7559C54.1134 31.5931 53.8693 31.3734 53.6577 31.0967C53.4543 30.82 53.2915 30.4945 53.1694 30.1201C53.0474 29.7458 52.9863 29.347 52.9863 28.9238V16.6069ZM69.4414 16.6069C69.4414 16.1756 69.5024 15.7728 69.6245 15.3984C69.7466 15.016 69.9093 14.6864 70.1128 14.4097C70.3244 14.1248 70.5685 13.9051 70.8452 13.7505C71.1219 13.5877 71.4189 13.5063 71.7363 13.5063H81.502V15.5693H72.3589V29.9004H78.6333V21.2212H81.5264L81.502 33.4282C81.502 33.8433 81.4409 34.2339 81.3188 34.6001C81.2049 34.9744 81.0462 35.3 80.8428 35.5767C80.6393 35.8615 80.3993 36.0853 80.1226 36.248C79.8459 36.4108 79.5529 36.4922 79.2437 36.4922H78.6333V32H71.7363C71.4189 32 71.1219 31.9186 70.8452 31.7559C70.5685 31.5931 70.3244 31.3734 70.1128 31.0967C69.9093 30.82 69.7466 30.4945 69.6245 30.1201C69.5024 29.7458 69.4414 29.347 69.4414 28.9238V16.6069Z" fill="white"/>
<path d="M34.1422 9.85781C30.3647 6.08031 25.3422 4 20 4C14.6578 4 9.63531 6.08031 5.85781 9.85781C2.08031 13.6353 0 18.6578 0 24C0 29.3422 2.08039 34.3646 5.85781 38.1422C9.63523 41.9198 14.6578 44 20 44C25.3422 44 30.3647 41.9197 34.1422 38.1422C37.9197 34.3647 40 29.3422 40 24C40 18.6578 37.9196 13.6354 34.1422 9.85781Z" fill="#33CC95"/>
<g clip-path="url(#clip0)">
<path d="M20.5714 12V37.1429" stroke="white" stroke-width="2" stroke-linecap="round" stroke-linejoin="round"/>
<path d="M26.2857 16.5714H17.7143C16.6534 16.5714 15.636 16.9929 14.8859 17.743C14.1357 18.4931 13.7143 19.5106 13.7143 20.5714C13.7143 21.6323 14.1357 22.6497 14.8859 23.3999C15.636 24.15 16.6534 24.5714 17.7143 24.5714H23.4286C24.4894 24.5714 25.5069 24.9929 26.257 25.743C27.0072 26.4932 27.4286 27.5106 27.4286 28.5714C27.4286 29.6323 27.0072 30.6497 26.257 31.3999C25.5069 32.15 24.4894 32.5714 23.4286 32.5714H13.7143" stroke="white" stroke-width="2" stroke-linecap="round" stroke-linejoin="round"/>
</g>
<defs>
<clipPath id="clip0">
<rect width="27.4286" height="27.4286" fill="white" transform="translate(6.85715 10.8571)"/>
</clipPath>
</defs>
</svg>
